<?xml version="1.0" encoding="utf-8"?>
<!-- Generator: Adobe Illustrator 23.1.1, SVG Export Plug-In . SVG Version: 6.00 Build 0)  -->
<svg version="1.1" id="Calque_1" xmlns="http://www.w3.org/2000/svg" xmlns:xlink="http://www.w3.org/1999/xlink" x="0px" y="0px"
	 viewBox="0 0 619 66" style="enable-background:new 0 0 619 66;" xml:space="preserve">
<style type="text/css">
	.st0{fill:#FFF3EE;}
</style>
<g>
	<polygon class="st0" points="550.41,1.46 545.9,1.46 512.11,36.97 512.11,1.46 503.91,1.46 503.91,64.54 512.11,64.54 
		512.11,42.37 522.29,31.47 546.26,64.54 555.64,64.54 527.52,25.88 	"/>
	<polygon class="st0" points="578.16,64.54 586.36,64.54 586.36,33.18 614.3,33.18 614.3,29.03 586.36,29.03 586.36,6.42 
		618.89,6.42 618.89,1.46 578.16,1.46 	"/>
	<g>
		<path class="st0" d="M6.23,48.59c0.06,1.02,0.3,2.27,0.72,3.74c0.42,1.47,1.23,2.9,2.43,4.28c1.2,1.38,2.94,2.57,5.23,3.56
			c2.28,0.99,5.32,1.49,9.1,1.49c4.75,0,8.55-0.9,11.4-2.7c2.85-1.8,4.28-4.65,4.28-8.56c0-3.12-0.9-5.62-2.7-7.48
			c-1.8-1.86-4.07-3.44-6.8-4.73c-2.74-1.29-5.69-2.45-8.88-3.47c-3.19-1.02-6.14-2.25-8.88-3.69c-2.73-1.44-5-3.24-6.8-5.41
			c-1.8-2.16-2.7-5.02-2.7-8.56c0-2.7,0.56-5.11,1.67-7.21C5.41,7.74,6.92,6,8.81,4.61c1.89-1.38,4.09-2.43,6.59-3.15
			c2.5-0.72,5.13-1.08,7.9-1.08c2.65,0,5.19,0.32,7.62,0.95c2.44,0.63,4.62,1.56,6.54,2.79c1.93,1.23,3.52,2.73,4.78,4.51
			c1.26,1.77,2.08,3.77,2.44,5.99h-6.14c-0.48-3.54-2.09-6.14-4.83-7.79c-2.74-1.65-6.06-2.48-9.97-2.48
			c-2.35,0-4.42,0.29-6.23,0.86c-1.8,0.57-3.33,1.32-4.56,2.25c-1.23,0.93-2.17,2.03-2.8,3.29C9.52,12,9.21,13.36,9.21,14.8
			c0,2.58,0.93,4.66,2.8,6.22c1.87,1.56,4.2,2.94,7,4.15c2.8,1.2,5.84,2.34,9.12,3.42c3.28,1.08,6.32,2.42,9.12,4.01
			c2.8,1.59,5.13,3.58,7,5.95c1.87,2.37,2.8,5.42,2.8,9.15c0,2.7-0.54,5.17-1.63,7.39c-1.08,2.22-2.62,4.12-4.61,5.68
			c-1.99,1.56-4.38,2.76-7.18,3.6c-2.8,0.84-5.94,1.26-9.43,1.26c-3.43,0-6.59-0.41-9.48-1.22c-2.89-0.81-5.4-1.95-7.54-3.42
			c-2.14-1.47-3.82-3.26-5.06-5.36c-1.23-2.1-1.91-4.44-2.03-7.03H6.23z"/>
		<path class="st0" d="M68.55,22.1c1.29-3.84,3.32-7.37,6.08-10.59c2.76-3.21,6.28-5.87,10.54-7.98c4.26-2.1,9.37-3.15,15.32-3.15
			c6.01,0,11.22,1.07,15.63,3.2c4.41,2.13,8.06,4.82,10.95,8.06c2.88,3.24,5.02,6.77,6.4,10.59c1.38,3.82,2.07,7.41,2.07,10.77
			c0,2.22-0.32,4.57-0.95,7.03c-0.63,2.46-1.56,4.91-2.79,7.34c-1.23,2.43-2.81,4.75-4.73,6.94c-1.92,2.19-4.19,4.13-6.8,5.81
			c-2.61,1.68-5.56,3.02-8.83,4.01c-3.27,0.99-6.92,1.49-10.95,1.49c-5.95,0-11.05-1.07-15.32-3.2c-4.27-2.13-7.78-4.82-10.54-8.06
			c-2.76-3.24-4.79-6.77-6.08-10.59c-1.29-3.81-1.94-7.4-1.94-10.77C66.61,29.58,67.25,25.94,68.55,22.1z M77.38,44.58
			c1.29,3.51,3.06,6.53,5.32,9.06c2.25,2.52,4.91,4.49,7.97,5.9c3.06,1.41,6.4,2.12,10,2.12c3.54,0,6.89-0.71,10.05-2.12
			c3.15-1.41,5.92-3.38,8.29-5.9c2.37-2.52,4.25-5.54,5.63-9.06c1.38-3.51,2.07-7.37,2.07-11.58c0-4.2-0.69-8.06-2.07-11.58
			c-1.38-3.51-3.26-6.53-5.63-9.06c-2.37-2.52-5.14-4.49-8.29-5.9c-3.15-1.41-6.5-2.12-10.05-2.12c-3.6,0-6.94,0.71-10,2.12
			c-3.06,1.41-5.72,3.38-7.97,5.9c-2.25,2.52-4.03,5.54-5.32,9.06c-1.29,3.51-1.94,7.37-1.94,11.58
			C75.44,37.21,76.08,41.06,77.38,44.58z"/>
		<path class="st0" d="M168.07,64.54h-8.2V1.46h21.09c3.48,0,6.52,0.51,9.1,1.53c2.58,1.02,4.73,2.39,6.44,4.1
			c1.71,1.71,2.99,3.73,3.83,6.04c0.84,2.31,1.26,4.73,1.26,7.25c0,2.64-0.48,5.12-1.44,7.43c-0.96,2.31-2.39,4.36-4.28,6.13
			c-1.89,1.77-4.25,3.17-7.07,4.19c-2.82,1.02-6.07,1.53-9.73,1.53c-2.16,0-4.15-0.14-5.95-0.41c-1.8-0.27-3.48-0.61-5.05-1.04
			V64.54z M168.07,34.53c1.26,0.48,2.67,0.8,4.24,0.95c1.56,0.15,3.27,0.22,5.14,0.22c2.7,0,5.02-0.45,6.94-1.35
			c1.92-0.9,3.51-2.07,4.78-3.51c1.26-1.44,2.18-3.05,2.75-4.82c0.57-1.77,0.86-3.53,0.86-5.27c0-1.8-0.32-3.62-0.95-5.45
			c-0.63-1.83-1.58-3.48-2.84-4.96c-1.26-1.47-2.85-2.66-4.78-3.56c-1.92-0.9-4.15-1.35-6.67-1.35h-9.46V34.53z"/>
		<path class="st0" d="M232.32,64.54h-8.2V1.46h8.2v27.57h37.76V1.46h8.2v63.08h-8.2V33.18h-37.76V64.54z"/>
		<path class="st0" d="M320.72,1.46v63.08h-8.2V1.46H320.72z"/>
		<path class="st0" d="M395.69,1.46v4.96h-32.53v22.62h27.93v4.15h-27.93v26.4h32.53v4.96h-40.73V1.46H395.69z"/>
	</g>
</g>
<path class="st0" d="M478.91,20.38c-1.65-3.84-3.96-7.16-6.94-9.96c-2.97-2.79-6.53-4.99-10.68-6.58c-0.49-0.19-0.98-0.36-1.48-0.53
	l-3.86,4.04c0.26,0.1,0.53,0.2,0.79,0.32c3.42,1.5,6.28,3.53,8.58,6.08c2.31,2.55,4.06,5.5,5.26,8.83c1.2,3.33,1.8,6.8,1.8,10.41
	c0,3.24-0.51,6.5-1.53,9.78c-1.02,3.27-2.64,6.23-4.85,8.88c-2.22,2.64-5.05,4.79-8.5,6.44c-3.45,1.65-7.63,2.48-12.54,2.48h-9.89
	V29.2l-8.2,8.58v26.76h21.81c4.51,0,8.74-0.78,12.71-2.34c3.96-1.56,7.43-3.75,10.41-6.58c2.97-2.82,5.32-6.17,7.03-10.05
	c1.71-3.88,2.57-8.12,2.57-12.75C481.38,28.37,480.56,24.23,478.91,20.38z"/>
</svg>
