<svg xmlns="http://www.w3.org/2000/svg" viewBox="0 0 100.6 107.6" id="logo-progress-animation">
			<circle fill="none" stroke="black" stroke-width="1" id="progress-path" cx="18.5" cy="18.5" r="18"/>
			<path d="M9 12.6092V12.3352C9 12.1501 9.1501 12 9.33525 12H12.4605C12.5886 12 12.7055 12.073 12.7617 12.1881L17.3076 21.4951C17.3517 21.5855 17.353 21.6909 17.3109 21.7823L16.2016 24.1947C16.1469 24.3136 16.028 24.3898 15.897 24.3898H15.2779C15.1527 24.3898 15.038 24.3201 14.9803 24.2091L9.03772 12.7637C9.01294 12.716 9 12.663 9 12.6092Z" fill="black"/>
			<path d="M9 24.6276V15.6774C9 15.4923 9.1501 15.3422 9.33525 15.3422H9.76611C9.89453 15.3422 10.0117 15.4155 10.0677 15.5311L12.3316 20.1968C12.3538 20.2424 12.3653 20.2925 12.3653 20.3432V24.6276C12.3653 24.8127 12.2152 24.9628 12.03 24.9628H9.33525C9.1501 24.9628 9 24.8127 9 24.6276Z" fill="black"/>
			<path d="M19.4538 12.3352V24.6275C19.4538 24.8127 19.6039 24.9628 19.789 24.9628H21.8632C22.0484 24.9628 22.1985 24.8127 22.1985 24.6275V12.3352C22.1985 12.1501 22.0484 12 21.8632 12H19.789C19.6039 12 19.4538 12.1501 19.4538 12.3352Z" fill="black"/>
			<path d="M24.9871 24.9628C24.7256 24.9628 24.5136 24.7508 24.5136 24.4893V24.4893C24.5136 24.3885 24.5589 24.2931 24.6369 24.2295L27.7723 21.6722C27.8321 21.6234 27.907 21.5968 27.9842 21.5968H28.355C28.5402 21.5968 28.6903 21.7469 28.6903 21.932V24.6275C28.6903 24.8127 28.5402 24.9628 28.355 24.9628H24.9871Z" fill="black"/>
</svg>