<svg xmlns="http://www.w3.org/2000/svg" xmlns:xlink="http://www.w3.org/1999/xlink" version="1.1" x="0px" y="0px" viewBox="0 0 100 125" style="enable-background:new 0 0 100 100;" xml:space="preserve"><g><path d="M20.1,52.5c1.2,7.5,7.6,13.2,15.4,13.2H41c1.4,0,2.5-1.1,2.5-2.5V36.8c0-1.4-1.1-2.5-2.5-2.5h-5.4   c-7.8,0-14.3,5.7-15.4,13.2H9.8c-1.4,0-2.5,1.1-2.5,2.5s1.1,2.5,2.5,2.5H20.1z M35.7,39.3h3v21.5h-3C29.8,60.7,25,55.9,25,50   C24.8,44.1,29.8,39.3,35.7,39.3z"/><path d="M50.7,54.2c-1.4,0-2.5,1.1-2.5,2.5s1.1,2.5,2.5,2.5h5.8v4.1c0,1.4,1.1,2.5,2.5,2.5h5.4c7.8,0,14.3-5.7,15.4-13.2h10.4   c1.4,0,2.5-1.1,2.5-2.5s-1.1-2.5-2.5-2.5H79.9c-1.2-7.5-7.6-13.2-15.4-13.2H59c-1.4,0-2.5,1.1-2.5,2.5V41h-5.8   c-1.4,0-2.5,1.1-2.5,2.5s1.1,2.5,2.5,2.5h5.8v8.2L50.7,54.2L50.7,54.2z M61.3,39.3h3C70.2,39.3,75,44.1,75,50s-4.8,10.7-10.7,10.7   h-3C61.3,60.7,61.3,39.3,61.3,39.3z"/></g><text x="0" y="115" fill="#000000" font-size="5px" font-weight="bold" font-family="'Helvetica Neue', Helvetica, Arial-Unicode, Arial, Sans-serif">Created by mikicon</text><text x="0" y="120" fill="#000000" font-size="5px" font-weight="bold" font-family="'Helvetica Neue', Helvetica, Arial-Unicode, Arial, Sans-serif">from the Noun Project</text></svg>