<svg width="45" height="45" viewBox="0 0 45 45" fill="none" xmlns="http://www.w3.org/2000/svg">
<path d="M4 11.2573V10.7459C4 10.3339 4.32561 10 4.72727 10H11.001C11.2789 10 11.5325 10.1624 11.6544 10.4185L20.8668 29.7569C20.9626 29.958 20.9653 30.1926 20.8741 30.396L18.6422 35.3724C18.5235 35.6371 18.2655 35.8066 17.9815 35.8066H16.7813C16.5098 35.8066 16.2609 35.6516 16.1359 35.4045L4.08185 11.601C4.02807 11.4949 4 11.3769 4 11.2573Z" fill="#D77B60"/>
<path d="M3 36.2541V17.7072C3 17.2953 3.32561 16.9613 3.72727 16.9613H4.52741C4.80597 16.9613 5.06007 17.1245 5.1817 17.3815L9.76339 27.0631C9.81139 27.1646 9.83636 27.276 9.83636 27.3888V36.2541C9.83636 36.666 9.51074 37 9.10909 37H3.72727C3.32561 37 3 36.666 3 36.2541Z" fill="#D77B60"/>
<path d="M24.2364 10.7459V36.2541C24.2364 36.6661 24.562 37 24.9637 37H29.0849C29.4865 37 29.8121 36.6661 29.8121 36.2541V10.7459C29.8121 10.3339 29.4865 10 29.0849 10H24.9637C24.562 10 24.2364 10.3339 24.2364 10.7459Z" fill="#D77B60"/>
<path d="M34.5152 37V36.0364C34.5152 35.8122 34.6134 35.5999 34.7828 35.4583L41.1224 30.1568C41.2522 30.0482 41.4145 29.989 41.582 29.989H42.2727C42.6744 29.989 43 30.3229 43 30.7348V36.2541C43 36.6661 42.6744 37 42.2727 37H34.5152Z" fill="#D77B60"/>
</svg>
