<svg width="45" height="45" viewBox="0 0 45 45" fill="none" xmlns="http://www.w3.org/2000/svg">
<path d="M4 11.2573V10.7459C4 10.3339 4.32561 10 4.72727 10H11.001C11.2789 10 11.5325 10.1624 11.6544 10.4185L20.8668 29.7569C20.9626 29.958 20.9653 30.1926 20.8741 30.396L18.6422 35.3724C18.5235 35.6371 18.2655 35.8066 17.9815 35.8066H16.7813C16.5098 35.8066 16.2609 35.6516 16.1359 35.4045L4.08185 11.601C4.02807 11.4949 4 11.3769 4 11.2573Z" fill="url(#paint0_angular)"/>
<path d="M4 36.2555V17.7445C4 17.3334 4.28577 17 4.6383 17H5.34055C5.58503 17 5.80804 17.1629 5.91479 17.4194L9.93596 27.0823C9.97808 27.1836 10 27.2948 10 27.4074V36.2555C10 36.6666 9.71422 37 9.3617 37H4.6383C4.28577 37 4 36.6666 4 36.2555Z" fill="url(#paint1_angular)"/>
<path d="M24.2364 10.7459V36.2541C24.2364 36.6661 24.562 37 24.9637 37H29.0849C29.4865 37 29.8121 36.6661 29.8121 36.2541V10.7459C29.8121 10.3339 29.4865 10 29.0849 10H24.9637C24.562 10 24.2364 10.3339 24.2364 10.7459Z" fill="url(#paint2_angular)"/>
<path d="M34.5152 37V36.0364C34.5152 35.8122 34.6134 35.5999 34.7828 35.4583L41.1224 30.1568C41.2522 30.0482 41.4145 29.989 41.582 29.989H42.2727C42.6744 29.989 43 30.3229 43 30.7348V36.2541C43 36.6661 42.6744 37 42.2727 37H34.5152Z" fill="url(#paint3_angular)"/>
<defs>
<radialGradient id="paint0_angular" cx="0" cy="0" r="1" gradientUnits="userSpaceOnUse" gradientTransform="translate(5.5 10) rotate(62.488) scale(27.0601 8.33277)">
<stop offset="0.244792" stop-color="#BF8C7C"/>
<stop offset="1" stop-color="#D7B6AA"/>
</radialGradient>
<radialGradient id="paint1_angular" cx="0" cy="0" r="1" gradientUnits="userSpaceOnUse" gradientTransform="translate(6.63298 21.0309) rotate(88.6834) scale(15.9733 4.79274)">
<stop stop-color="#BF8C7C"/>
<stop offset="1" stop-color="#DDC0B4"/>
</radialGradient>
<radialGradient id="paint2_angular" cx="0" cy="0" r="1" gradientUnits="userSpaceOnUse" gradientTransform="translate(27 11) rotate(89.9466) scale(26 5.36919)">
<stop stop-color="#BF8C7C"/>
<stop offset="1" stop-color="#DDC0B4"/>
</radialGradient>
<radialGradient id="paint3_angular" cx="0" cy="0" r="1" gradientUnits="userSpaceOnUse" gradientTransform="translate(38.7576 33.4945) rotate(90) scale(3.5055 4.2424)">
<stop stop-color="#BF8C7C"/>
<stop offset="1" stop-color="#DDC0B4"/>
</radialGradient>
</defs>
</svg>
