<svg width="45" height="45" viewBox="0 0 45 45" fill="none" xmlns="http://www.w3.org/2000/svg">
<path d="M4 11.2573V10.7459C4 10.3339 4.32561 10 4.72727 10H11.001C11.2789 10 11.5325 10.1624 11.6544 10.4185L20.8668 29.7569C20.9626 29.958 20.9653 30.1926 20.8741 30.396L18.6422 35.3724C18.5235 35.6371 18.2655 35.8066 17.9815 35.8066H16.7813C16.5098 35.8066 16.2609 35.6516 16.1359 35.4045L4.08185 11.601C4.02807 11.4949 4 11.3769 4 11.2573Z" fill="url(#paint0_angular)"/>
<path d="M4 36.2555V17.7445C4 17.3334 4.2374 17 4.53026 17H5.11365C5.31675 17 5.50201 17.1629 5.5907 17.4194L8.98445 25.5C9.01944 25.6013 8.98445 27.2948 8.98445 27.4074V36.2555C8.98445 36.6666 8.74703 37 8.45419 37H4.53026C4.2374 37 4 36.6666 4 36.2555Z" fill="url(#paint1_angular)"/>
<path d="M24.2364 10.7459V36.2541C24.2364 36.6661 24.562 37 24.9637 37H29.0849C29.4865 37 29.8121 36.6661 29.8121 36.2541V10.7459C29.8121 10.3339 29.4865 10 29.0849 10H24.9637C24.562 10 24.2364 10.3339 24.2364 10.7459Z" fill="url(#paint2_angular)"/>
<path d="M34 37V36.0379C34 35.8141 34.0694 35.6021 34.1892 35.4607L38.6723 30.1675C38.764 30.0591 38.8788 30 38.9973 30H39.4857C39.7698 30 40 30.3334 40 30.7446V36.2553C40 36.6666 39.7698 37 39.4857 37H34Z" fill="url(#paint3_angular)"/>
<defs>
<radialGradient id="paint0_angular" cx="0" cy="0" r="1" gradientUnits="userSpaceOnUse" gradientTransform="translate(6 10) rotate(62.9691) scale(27.5045 18.0552)">
<stop stop-color="white"/>
<stop offset="1" stop-color="white" stop-opacity="0.85"/>
</radialGradient>
<radialGradient id="paint1_angular" cx="0" cy="0" r="1" gradientUnits="userSpaceOnUse" gradientTransform="translate(6.49222 20.5) rotate(90) scale(16.5 3.36889)">
<stop stop-color="white"/>
<stop offset="1" stop-color="white" stop-opacity="0.85"/>
</radialGradient>
<radialGradient id="paint2_angular" cx="0" cy="0" r="1" gradientUnits="userSpaceOnUse" gradientTransform="translate(27 10.5) rotate(89.9476) scale(26.5 5.47245)">
<stop stop-color="white"/>
<stop offset="1" stop-color="white" stop-opacity="0.85"/>
</radialGradient>
<radialGradient id="paint3_angular" cx="0" cy="0" r="1" gradientUnits="userSpaceOnUse" gradientTransform="translate(37 32) rotate(90) scale(5 4.73815)">
<stop stop-color="white"/>
<stop offset="1" stop-color="white" stop-opacity="0.85"/>
</radialGradient>
</defs>
</svg>
