<svg width="45" height="45" viewBox="0 0 45 45" fill="none" xmlns="http://www.w3.org/2000/svg">
<path d="M10 13.8731V13.518C10 13.2319 10.2261 13 10.505 13H14.8618C15.0548 13 15.2309 13.1128 15.3156 13.2906L21.7131 26.7201C21.7796 26.8597 21.7815 27.0226 21.7181 27.1639L20.1682 30.6197C20.0858 30.8035 19.9066 30.9213 19.7094 30.9213H18.8759C18.6874 30.9213 18.5145 30.8136 18.4277 30.642L10.0568 14.1118C10.0195 14.0381 10 13.9562 10 13.8731Z" fill="url(#paint0_angular)"/>
<path d="M10 31.2327V18.3778C10 18.0923 10.1649 17.8608 10.3682 17.8608H10.7734C10.9144 17.8608 11.0431 17.9739 11.1047 18.1521L13.4614 23.7636C13.4857 23.8339 13.4614 25.01 13.4614 25.0882V31.2327C13.4614 31.5182 13.2966 31.7497 13.0932 31.7497H10.3682C10.1649 31.7497 10 31.5182 10 31.2327Z" fill="url(#paint1_angular)"/>
<path d="M24.053 13.518V31.232C24.053 31.5181 24.2791 31.75 24.5581 31.75H27.4201C27.6989 31.75 27.9251 31.5181 27.9251 31.232V13.518C27.9251 13.2319 27.6989 13 27.4201 13H24.5581C24.2791 13 24.053 13.2319 24.053 13.518Z" fill="url(#paint2_angular)"/>
<path d="M30.8333 31.7503V31.0822C30.8333 30.9268 30.8815 30.7795 30.9647 30.6813L34.0779 27.0055C34.1416 26.9302 34.2213 26.8892 34.3036 26.8892H34.6428C34.8401 26.8892 35 27.1207 35 27.4063V31.2331C35 31.5188 34.8401 31.7503 34.6428 31.7503H30.8333Z" fill="url(#paint3_angular)"/>
<path d="M23 42C34.0457 42 43 33.0457 43 22C43 10.9543 34.0457 2 23 2C11.9543 2 3 10.9543 3 22C3 33.0457 11.9543 42 23 42Z" stroke="#BF8C7C" stroke-opacity="0.2"/>
<path d="M23 42C34.0457 42 43 33.0457 43 22C43 10.9543 34.0457 2 23 2C11.9543 2 3 10.9543 3 22C3 33.0457 11.9543 42 23 42Z" stroke="#BF8C7C" stroke-dashoffset="103.67" stroke-dasharray="103.67" id="progress" style="stroke-dashoffset: 103.67;"/>
<defs>
<radialGradient id="paint0_angular" cx="0" cy="0" r="1" gradientUnits="userSpaceOnUse" gradientTransform="translate(11.3889 13) rotate(62.9691) scale(19.1004 12.5383)">
<stop stop-color="#BF8C7C"/>
<stop offset="1" stop-color="#DDC0B4"/>
</radialGradient>
<radialGradient id="paint1_angular" cx="0" cy="0" r="1" gradientUnits="userSpaceOnUse" gradientTransform="translate(11.7307 20.2914) rotate(90) scale(11.4583 2.33951)">
<stop stop-color="#BF8C7C"/>
<stop offset="1" stop-color="#DDC0B4"/>
</radialGradient>
<radialGradient id="paint2_angular" cx="0" cy="0" r="1" gradientUnits="userSpaceOnUse" gradientTransform="translate(25.9722 13.3472) rotate(89.9476) scale(18.4028 3.80031)">
<stop stop-color="#BF8C7C"/>
<stop offset="1" stop-color="#DDC0B4"/>
</radialGradient>
<radialGradient id="paint3_angular" cx="0" cy="0" r="1" gradientUnits="userSpaceOnUse" gradientTransform="translate(32.9166 28.2781) rotate(90) scale(3.47222 3.29038)">
<stop stop-color="#BF8C7C"/>
<stop offset="1" stop-color="#DDC0B4"/>
</radialGradient>
</defs>
</svg>
