<svg width="35" height="35" viewBox="0 0 35 35" fill="none" xmlns="http://www.w3.org/2000/svg">
<path d="M17.5 34C26.6127 34 34 26.6127 34 17.5C34 8.3873 26.6127 1 17.5 1C8.3873 1 1 8.3873 1 17.5C1 26.6127 8.3873 34 17.5 34Z" stroke="black" stroke-opacity="0.2"/>
<path d="M17.5 34C26.6127 34 34 26.6127 34 17.5C34 8.3873 26.6127 1 17.5 1C8.3873 1 1 8.3873 1 17.5C1 26.6127 8.3873 34 17.5 34Z" stroke="black" stroke-dasharray="103.67 103.67"/>
<path fill-rule="evenodd" clip-rule="evenodd" d="M17 30C24.1797 30 30 24.1797 30 17C30 9.8203 24.1797 4 17 4C9.8203 4 4 9.8203 4 17C4 24.1797 9.8203 30 17 30ZM9.94289 12.4206V12.6241C9.94289 12.664 9.9525 12.7034 9.97091 12.7389L14.3854 21.2411C14.4283 21.3236 14.5135 21.3754 14.6065 21.3754H15.0664C15.1637 21.3754 15.252 21.3188 15.2927 21.2304L16.1167 19.4384C16.1479 19.3705 16.147 19.2922 16.1142 19.225L12.7373 12.3113C12.6955 12.2258 12.6087 12.1715 12.5135 12.1715H10.1919C10.0544 12.1715 9.94289 12.283 9.94289 12.4206ZM9.94289 14.9033V21.552C9.94289 21.6896 10.0544 21.8011 10.1919 21.8011H12.1938C12.3313 21.8011 12.4428 21.6896 12.4428 21.552V18.3693C12.4428 18.3317 12.4343 18.2945 12.4178 18.2606L10.7361 14.7946C10.6944 14.7088 10.6074 14.6543 10.512 14.6543H10.1919C10.0544 14.6543 9.94289 14.7658 9.94289 14.9033ZM17.7085 12.4206V21.552C17.7085 21.6895 17.82 21.801 17.9576 21.801H19.4984C19.636 21.801 19.7475 21.6895 19.7475 21.552V12.4206C19.7475 12.283 19.636 12.1715 19.4984 12.1715H17.9576C17.82 12.1715 17.7085 12.283 17.7085 12.4206ZM21.4673 21.4493C21.4673 21.6435 21.6247 21.801 21.819 21.801H24.3209C24.4585 21.801 24.57 21.6895 24.57 21.552V19.5496C24.57 19.4121 24.4585 19.3006 24.3209 19.3006H24.0454C23.9881 19.3006 23.9325 19.3204 23.888 19.3566L21.5589 21.2563C21.5009 21.3036 21.4673 21.3744 21.4673 21.4493Z" fill="black"/>
</svg>
