<svg width="825" height="543" viewBox="0 0 825 543" fill="none" xmlns="http://www.w3.org/2000/svg">
<path d="M0 25.2854V15C0 6.71573 6.71574 0 15 0H144.395C150.127 0 155.357 3.26591 157.873 8.41556L347.878 397.333C349.854 401.378 349.909 406.096 348.028 410.186L301.995 510.268C299.547 515.59 294.225 519 288.368 519H263.614C258.015 519 252.882 515.882 250.302 510.913L1.68813 32.1988C0.579005 30.0631 0 27.6919 0 25.2854Z" fill="#D77B60"/>
<path d="M0 528V155C0 146.716 6.71572 140 15 140H31.5028C37.2482 140 42.4889 143.282 44.9975 148.451L139.495 343.158C140.485 345.199 141 347.439 141 349.708V528C141 536.284 134.284 543 126 543H15C6.71573 543 0 536.284 0 528Z" fill="#D77B60"/>
<path d="M438 15V528C438 536.284 444.716 543 453 543H538C546.284 543 553 536.284 553 528V15C553 6.71573 546.284 0 538 0H453C444.716 0 438 6.71573 438 15Z" fill="#D77B60"/>
<path d="M650 543V523.62C650 519.112 652.027 514.843 655.521 511.995L786.274 405.375C788.951 403.192 792.299 402 795.753 402H810C818.284 402 825 408.716 825 417V528C825 536.284 818.284 543 810 543H650Z" fill="#D77B60"/>
</svg>
