<svg class="md:mx-32" width="48" height="32" viewBox="0 0 48 32" fill="none" xmlns="http://www.w3.org/2000/svg">
<path d="M11.1273 22.7273C11.7455 22.4182 12.0545 22.1091 12.3636 21.8C12.8273 21.1818 13.1364 20.4091 13.1364 19.3273C13.1364 18.4 12.8273 17.4727 12.3636 16.8545C11.5909 15.6182 10.2 15 8.19091 15H0V31.5364H7.57272C8.34545 31.5364 9.27272 31.5364 9.89091 31.3818C10.6636 31.2273 11.2818 30.9182 11.7455 30.6091C12.2091 30.3 12.6727 29.8364 12.9818 29.3727C13.4455 28.6 13.7545 27.6727 13.7545 26.7455C13.7545 25.8182 13.6 25.0455 13.1364 24.2727C12.6727 23.5 12.0545 23.0364 11.1273 22.7273ZM3.4 17.9364H7.10909C7.88182 17.9364 8.5 18.0909 9.11818 18.2455C9.73636 18.5545 10.0455 19.0182 10.0455 19.7909C10.0455 20.4091 9.89091 21.0273 9.42727 21.1818C8.80909 21.3364 8.19091 21.4909 7.41818 21.4909H3.4V17.9364ZM9.11818 28.4455C8.65454 28.6 8.19091 28.7545 7.41818 28.7545H3.4V24.4273H7.57272C8.34545 24.4273 8.80909 24.5818 9.27273 24.7364C10.0455 25.0455 10.3545 25.6636 10.3545 26.4364C10.2 27.3636 9.89091 27.9818 9.11818 28.4455Z" fill="black"/>
<path d="M24.4181 15.7727H17.3091V17.7818H24.4181V15.7727Z" fill="black"/>
<path d="M27.0454 23.9636C26.8909 23.0364 26.5818 22.1091 26.1181 21.4909C25.5 20.7182 24.8818 20.1 23.9545 19.6364C23.0272 19.3273 22.1 19.0182 21.0181 19.0182C19.1636 19.0182 17.7727 19.6364 16.5363 20.7182C15.4545 21.8 14.8363 23.5 14.8363 25.5091C14.8363 27.8273 15.4545 29.3727 16.6909 30.4545C17.9272 31.3818 19.4727 32 21.0181 32C23.0272 32 24.5727 31.3818 25.6545 30.1455C26.4272 29.3727 26.7363 28.6 26.8909 27.9818H23.6454C23.4909 28.2909 23.1818 28.6 23.0272 28.7545C22.5636 29.0636 21.9454 29.3727 21.1727 29.3727C20.4 29.3727 19.9363 29.2182 19.3181 28.9091C18.5454 28.4455 18.0818 27.5182 18.0818 26.2818H27.0454C27.2 25.3545 27.0454 24.4273 27.0454 23.9636ZM18.2363 24.2727C18.3909 23.5 18.7 22.8818 19.1636 22.4182C19.6272 21.9545 20.2454 21.6454 21.0181 21.6454C21.7909 21.6454 22.409 21.8 22.8727 22.2636C23.3363 22.7273 23.6454 23.3454 23.8 24.1182H18.2363V24.2727Z" fill="black"/>
</svg>
