<svg width="32" height="32" viewBox="0 0 32 32" fill="none" xmlns="http://www.w3.org/2000/svg">
<path d="M10.369 23.2007C10.9451 22.9127 11.2331 22.6247 11.5212 22.3366C11.9532 21.7606 12.2412 21.0405 12.2412 20.0324C12.2412 19.1683 11.9532 18.3042 11.5212 17.7282C10.8011 16.5761 9.50495 16 7.63276 16H0V31.4096H7.05671C7.77678 31.4096 8.64086 31.4096 9.21692 31.2655C9.93699 31.1215 10.5131 30.8335 10.9451 30.5455C11.3771 30.2574 11.8092 29.8254 12.0972 29.3933C12.5293 28.6733 12.8173 27.8092 12.8173 26.9451C12.8173 26.081 12.6733 25.3609 12.2412 24.6409C11.8092 23.9208 11.2331 23.4888 10.369 23.2007ZM3.16832 18.7363H6.62466C7.34474 18.7363 7.92079 18.8803 8.49685 19.0243C9.07291 19.3123 9.36094 19.7444 9.36094 20.4644C9.36094 21.0405 9.21692 21.6166 8.78488 21.7606C8.20882 21.9046 7.63276 22.0486 6.91269 22.0486H3.16832V18.7363ZM8.49685 28.5293C8.06481 28.6733 7.63276 28.8173 6.91269 28.8173H3.16832V24.7849H7.05671C7.77678 24.7849 8.20882 24.9289 8.64087 25.0729C9.36094 25.3609 9.64897 25.937 9.64897 26.6571C9.50495 27.5212 9.21692 28.0972 8.49685 28.5293Z" fill="black"/>
<path d="M22.7542 16.7201H16.1296V18.5923H22.7542V16.7201Z" fill="black"/>
<path d="M25.2025 24.3528C25.0585 23.4887 24.7704 22.6247 24.3384 22.0486C23.7623 21.3285 23.1863 20.7525 22.3222 20.3204C21.4581 20.0324 20.594 19.7444 19.5859 19.7444C17.8578 19.7444 16.5616 20.3204 15.4095 21.3285C14.4014 22.3366 13.8253 23.9208 13.8253 25.793C13.8253 27.9532 14.4014 29.3933 15.5535 30.4014C16.7056 31.2655 18.1458 31.8416 19.5859 31.8416C21.4581 31.8416 22.8983 31.2655 23.9064 30.1134C24.6264 29.3933 24.9145 28.6733 25.0585 28.0972H22.0342C21.8902 28.3852 21.6021 28.6733 21.4581 28.8173C21.0261 29.1053 20.45 29.3933 19.7299 29.3933C19.0099 29.3933 18.5778 29.2493 18.0018 28.9613C17.2817 28.5293 16.8497 27.6652 16.8497 26.5131H25.2025C25.3465 25.649 25.2025 24.7849 25.2025 24.3528ZM16.9937 24.6409C17.1377 23.9208 17.4257 23.3447 17.8578 22.9127C18.2898 22.4806 18.8659 22.1926 19.5859 22.1926C20.306 22.1926 20.8821 22.3366 21.3141 22.7687C21.7461 23.2007 22.0342 23.7768 22.1782 24.4968H16.9937V24.6409Z" fill="black"/>
</svg>
