<svg width="40" height="32" viewBox="0 0 40 32" fill="none" xmlns="http://www.w3.org/2000/svg">
<g clip-path="url(#clip0_7_121)">
<path fill-rule="evenodd" clip-rule="evenodd" d="M10 12C4.47941 12 0 16.4794 0 22C0 27.5206 4.47941 32 10 32C15.5098 32 20 27.5206 20 22C20 16.4794 15.5098 12 10 12ZM16.6052 16.6095C17.7983 18.0629 18.5141 19.9176 18.5358 21.9241C18.2538 21.8698 15.4338 21.295 12.5922 21.6529C12.5271 21.512 12.4729 21.3601 12.4078 21.2083C12.2343 20.7961 12.039 20.3731 11.8438 19.9718C14.9892 18.692 16.4208 16.8482 16.6052 16.6095ZM10 13.4751C12.1692 13.4751 14.154 14.2885 15.6616 15.6226C15.5098 15.8395 14.2191 17.564 11.1822 18.7028C9.78308 16.1323 8.23211 14.0282 7.99351 13.7028C8.6334 13.551 9.30586 13.4751 10 13.4751ZM6.36659 14.2777C6.59435 14.5813 8.1128 16.6963 9.53362 19.2126C5.54229 20.2755 2.01736 20.2538 1.63774 20.2538C2.19089 17.6074 3.98048 15.4056 6.36659 14.2777ZM1.45336 22.0108C1.45336 21.9241 1.45336 21.8373 1.45336 21.7505C1.82213 21.7614 5.9653 21.8156 10.2278 20.5358C10.4772 21.013 10.705 21.5011 10.9219 21.9892C10.8134 22.0217 10.6941 22.0542 10.5857 22.0868C6.18222 23.5076 3.83948 27.3905 3.64427 27.7158C2.2885 26.2082 1.45336 24.2017 1.45336 22.0108ZM10 30.5466C8.02604 30.5466 6.2039 29.8742 4.76138 28.7462C4.91324 28.4317 6.6486 25.0911 11.4642 23.41C11.4859 23.3991 11.4968 23.3991 11.5184 23.3883C12.7223 26.5011 13.2104 29.115 13.3406 29.8633C12.3102 30.308 11.1822 30.5466 10 30.5466ZM14.7614 29.0824C14.6746 28.5618 14.2191 26.0672 13.102 22.9978C15.7809 22.5749 18.1237 23.269 18.4165 23.3666C18.0477 25.7419 16.6811 27.7918 14.7614 29.0824Z" fill="black" stroke="black"/>
</g>
<defs>
<clipPath id="clip0_7_121">
<rect width="40" height="32" fill="white"/>
</clipPath>
</defs>
</svg>
