<svg width="32" height="32" viewBox="0 0 32 32" fill="none" xmlns="http://www.w3.org/2000/svg">
<g clip-path="url(#clip0_6_65)">
<path d="M20.7752 24.093C20.7752 23.0078 20.6202 22.2326 20.3101 21.4574C20 20.6822 19.6899 20.062 19.2248 19.5969C18.7597 19.1318 18.2946 18.6667 17.6744 18.5116C17.0543 18.2016 16.4341 18.2016 15.6589 18.2016C15.0388 18.2016 14.5736 18.2016 14.1085 18.3566C13.6434 18.5116 13.3333 18.6667 13.0233 18.9768C12.7132 19.1318 12.4031 19.4419 12.2481 19.7519C11.938 19.907 11.7829 20.062 11.6279 20.3721V18.5116H7.13178C7.13178 18.8217 7.13178 19.5969 7.13178 20.6822V24.7132C7.13178 24.7132 7.13178 27.1938 7.13178 32H11.6279V24.5582C11.6279 24.4031 11.6279 24.2481 11.6279 23.938C11.6279 23.783 11.6279 23.6279 11.7829 23.4729C11.938 23.0078 12.2481 22.6977 12.5581 22.3876C12.8682 22.0775 13.4884 21.9225 14.1085 21.9225C14.8837 21.9225 15.5039 22.2326 15.814 22.6977C16.124 23.3178 16.2791 23.938 16.2791 24.8682V32H20.7752V24.093ZM2.48062 16.6512C3.25581 16.6512 3.87596 16.4961 4.34108 16.031C4.8062 15.5659 4.96124 15.1008 4.96124 14.3256C4.96124 13.7054 4.8062 13.0853 4.34108 12.6202C3.87596 12.155 3.25581 12 2.48062 12C1.70542 12 1.08527 12.155 0.620155 12.6202C0.155039 13.0853 0 13.7054 0 14.3256C0 14.9457 0.155039 15.5659 0.620155 16.031C1.08527 16.3411 1.70542 16.6512 2.48062 16.6512ZM4.65116 18.5116H0.310078V32H4.8062V18.5116H4.65116Z" fill="black"/>
</g>
<defs>
<clipPath id="clip0_6_65">
<rect width="32" height="32" fill="white"/>
</clipPath>
</defs>
</svg>
